<svg xmlns="http://www.w3.org/2000/svg" viewBox="0 0 100 36" width="100" height="36">
	<style>
		tspan { white-space:pre }
	</style>
	<path id="NULLED " fill="#23a86d" d="M2.31 27L2.31 8.77L5.63 8.77L13.71 24.02L13.71 8.77L16.1 8.77L16.1 27L12.78 27L4.7 11.75L4.7 27L2.31 27ZM20.73 20.15L20.73 8.77L23.21 8.77L23.21 19.85Q23.21 22.78 24.27 24.07Q25.33 25.35 27.71 25.35Q30.08 25.35 31.14 24.07Q32.21 22.78 32.21 19.85L32.21 8.77L34.68 8.77L34.68 20.15Q34.68 23.72 32.91 25.54Q31.16 27.35 27.71 27.35Q24.26 27.35 22.49 25.54Q20.73 23.72 20.73 20.15ZM39.31 27L39.31 8.77L41.78 8.77L41.78 24.92L50.65 24.92L50.65 27L39.31 27ZM53.24 27L53.24 8.77L55.7 8.77L55.7 24.92L64.58 24.92L64.58 27L53.24 27ZM67.17 27L67.17 8.77L78.69 8.77L78.69 10.85L69.63 10.85L69.63 16.25L78.31 16.25L78.31 18.32L69.63 18.32L69.63 24.92L78.91 24.92L78.91 27L67.17 27ZM88.41 10.8L85.43 10.8L85.43 24.97L88.41 24.97Q92.18 24.97 93.92 23.26Q95.68 21.56 95.68 17.87Q95.68 14.21 93.92 12.51Q92.18 10.8 88.41 10.8ZM82.96 27L82.96 8.77L88.03 8.77Q93.33 8.77 95.8 10.98Q98.28 13.18 98.28 17.87Q98.28 22.58 95.79 24.79Q93.3 27 88.03 27L82.96 27Z" />
</svg>